<?xml version="1.0" encoding="UTF-8" standalone="no"?>
<!DOCTYPE svg PUBLIC "-//W3C//DTD SVG 1.1//EN"
 "http://www.w3.org/Graphics/SVG/1.1/DTD/svg11.dtd">
<!-- Title: _anonymous_0 Pages: 1 -->
<svg width="702pt" height="922pt"
 viewBox="0.00 0.00 702.00 922.00" xmlns="http://www.w3.org/2000/svg" xmlns:xlink="http://www.w3.org/1999/xlink">
  <g id="graph1" class="graph" transform="scale(1 1) rotate(0) translate(4 918)">
    <title>_anonymous_0</title>
    <polygon fill="white" stroke="white" points="-4,5 -4,-918 699,-918 699,5 -4,5"/>
    <!-- DataCollection -->
    <g id="node2" class="node">
      <title>DataCollection</title>
      <polygon fill="none" stroke="black" points="102,-717 7.10543e-15,-717 7.10543e-15,-681 102,-681 102,-717"/>
      <text text-anchor="middle" x="51" y="-695.3" font-family="Times,serif" font-size="14.00">DataCollection</text>
    </g>
    <!-- Job -->
    <g id="node4" class="node">
      <title>Job</title>
      <polygon fill="none" stroke="black" points="78,-629 24,-629 24,-593 78,-593 78,-629"/>
      <text text-anchor="middle" x="51" y="-607.3" font-family="Times,serif" font-size="14.00">Job</text>
    </g>
    <!-- DataCollection&#45;&gt;Job -->
    <g id="edge3a" class="edge">
      <title>DataCollection&#45;&gt;Job</title>
      <path fill="none" stroke="black" d="M43,-670.675C43,-656.856 43,-643.037 43,-629.219"/>
      <polygon fill="black" stroke="black" points="39.5001,-670.737 43,-680.737 46.5001,-670.737 39.5001,-670.737"/>
      <text text-anchor="end" x="39" y="-650" font-family="Times,serif" font-size="10.00">input</text>
    </g>
    <g id="edge3b" class="edge">
      <title>DataCollection&#45;&gt;Job</title>
      <path fill="none" stroke="black" d="M59,-670.675C59,-656.856 59,-643.037 59,-629.219"/>
      <polygon fill="black" stroke="black" points="55.5001,-670.737 59,-680.737 62.5001,-670.737 55.5001,-670.737"/>
      <text text-anchor="start" x="64" y="-650" font-family="Times,serif" font-size="10.00">output</text>
    </g>
    <!-- Datafile -->
    <g id="node19" class="node">
      <title>Datafile</title>
      <polygon fill="none" stroke="black" points="293.5,-801 232.5,-801 232.5,-765 293.5,-765 293.5,-801"/>
      <text text-anchor="middle" x="263" y="-779.3" font-family="Times,serif" font-size="14.00">Datafile</text>
    </g>
    <!-- DataCollection&#45;&gt;Datafile -->
    <g id="edge40" class="edge">
      <title>DataCollection&#45;&gt;Datafile</title>
      <path fill="none" stroke="black" d="M106.431,-720.772C142.782,-735.313 189.756,-754.102 222.534,-767.213"/>
      <polygon fill="black" stroke="black" points="107.635,-717.484 97.0503,-717.02 105.035,-723.984 107.635,-717.484"/>
      <polygon fill="black" stroke="black" points="221.638,-770.625 232.223,-771.089 224.238,-764.126 221.638,-770.625"/>
    </g>
    <!-- Dataset -->
    <g id="node21" class="node">
      <title>Dataset</title>
      <polygon fill="none" stroke="black" points="292,-717 234,-717 234,-681 292,-681 292,-717"/>
      <text text-anchor="middle" x="263" y="-695.3" font-family="Times,serif" font-size="14.00">Dataset</text>
    </g>
    <!-- DataCollection&#45;&gt;Dataset -->
    <g id="edge42" class="edge">
      <title>DataCollection&#45;&gt;Dataset</title>
      <path fill="none" stroke="black" d="M112.226,-699C148.195,-699 192.79,-699 223.925,-699"/>
      <polygon fill="black" stroke="black" points="112.033,-695.5 102.033,-699 112.033,-702.5 112.033,-695.5"/>
      <polygon fill="black" stroke="black" points="223.935,-702.5 233.935,-699 223.935,-695.5 223.935,-702.5"/>
    </g>
    <!-- DataCollectionParameter -->
    <g id="node32" class="node">
      <title>DataCollectionParameter</title>
      <polygon fill="none" stroke="black" points="506,-626 346,-626 346,-590 506,-590 506,-626"/>
      <text text-anchor="middle" x="426" y="-604.3" font-family="Times,serif" font-size="14.00">DataCollectionParameter</text>
    </g>
    <!-- DataCollection&#45;&gt;DataCollectionParameter -->
    <g id="edge73" class="edge">
      <title>DataCollection&#45;&gt;DataCollectionParameter</title>
      <path fill="none" stroke="black" d="M112.412,-684.261C177.525,-668.376 281.201,-643.082 351.119,-626.025"/>
      <polygon fill="black" stroke="black" points="111.19,-680.957 102.304,-686.727 112.849,-687.757 111.19,-680.957"/>
    </g>
    <!-- Application -->
    <g id="node6" class="node">
      <title>Application</title>
      <polygon fill="none" stroke="black" points="92.5,-540 9.5,-540 9.5,-504 92.5,-504 92.5,-540"/>
      <text text-anchor="middle" x="51" y="-518.3" font-family="Times,serif" font-size="14.00">Application</text>
    </g>
    <!-- Job&#45;&gt;Application -->
    <g id="edge5" class="edge">
      <title>Job&#45;&gt;Application</title>
      <path fill="none" stroke="black" d="M51,-592.992C51,-578.799 51,-564.606 51,-550.413"/>
      <polygon fill="black" stroke="black" points="54.5001,-550.078 51,-540.078 47.5001,-550.078 54.5001,-550.078"/>
    </g>
    <!-- Shift -->
    <g id="node8" class="node">
      <title>Shift</title>
      <polygon fill="none" stroke="black" points="78,-468 24,-468 24,-432 78,-432 78,-468"/>
      <text text-anchor="middle" x="51" y="-446.3" font-family="Times,serif" font-size="14.00">Shift</text>
    </g>
    <!-- Facility -->
    <g id="node42" class="node">
      <title>Facility</title>
      <polygon fill="none" stroke="black" points="649,-344 589,-344 589,-308 649,-308 649,-344"/>
      <text text-anchor="middle" x="619" y="-322.3" font-family="Times,serif" font-size="14.00">Facility</text>
    </g>
    <!-- Application&#45;&gt;Facility -->
    <g id="edge101" class="edge">
      <title>Application&#45;&gt;Facility</title>
      <path fill="none" stroke="black" d="M92.778,-505.56C126.082,-492.547 174.574,-474.539 218,-462 280.942,-443.826 445.569,-424.3 506,-399 535.485,-386.656 565.659,-366.466 587.249,-350.445"/>
      <polygon fill="black" stroke="black" points="589.498,-353.132 595.371,-344.314 585.281,-347.546 589.498,-353.132"/>
    </g>
    <!-- Keyword -->
    <g id="node9" class="node">
      <title>Keyword</title>
      <polygon fill="none" stroke="black" points="86,-396 16,-396 16,-360 86,-360 86,-396"/>
      <text text-anchor="middle" x="51" y="-374.3" font-family="Times,serif" font-size="14.00">Keyword</text>
    </g>
    <!-- Investigation -->
    <g id="node23" class="node">
      <title>Investigation</title>
      <polygon fill="none" stroke="black" points="307.5,-344 218.5,-344 218.5,-308 307.5,-308 307.5,-344"/>
      <text text-anchor="middle" x="263" y="-322.3" font-family="Times,serif" font-size="14.00">Investigation</text>
    </g>
    <!-- Shift&#45;&gt;Investigation -->
    <g id="edge44" class="edge">
      <title>Shift&#45;&gt;Investigation</title>
      <path fill="none" stroke="black" d="M77.0008,-431.935C89.6361,-423.104 105.359,-412.563 120,-404 154.315,-383.931 165.244,-383.293 200,-364 208.187,-359.455 216.835,-354.354 224.989,-349.401"/>
      <polygon fill="black" stroke="black" points="226.906,-352.331 233.598,-344.117 223.244,-346.365 226.906,-352.331"/>
    </g>
    <!-- Publication -->
    <g id="node10" class="node">
      <title>Publication</title>
      <polygon fill="none" stroke="black" points="91,-324 11,-324 11,-288 91,-288 91,-324"/>
      <text text-anchor="middle" x="51" y="-302.3" font-family="Times,serif" font-size="14.00">Publication</text>
    </g>
    <!-- Keyword&#45;&gt;Investigation -->
    <g id="edge46" class="edge">
      <title>Keyword&#45;&gt;Investigation</title>
      <path fill="none" stroke="black" d="M86.2075,-369.53C119.281,-361.34 169.895,-348.807 208.334,-339.289"/>
      <polygon fill="black" stroke="black" points="209.461,-342.615 218.326,-336.814 207.778,-335.821 209.461,-342.615"/>
    </g>
    <!-- Study -->
    <g id="node11" class="node">
      <title>Study</title>
      <polygon fill="none" stroke="black" points="78,-252 24,-252 24,-216 78,-216 78,-252"/>
      <text text-anchor="middle" x="51" y="-230.3" font-family="Times,serif" font-size="14.00">Study</text>
    </g>
    <!-- Publication&#45;&gt;Investigation -->
    <g id="edge48" class="edge">
      <title>Publication&#45;&gt;Investigation</title>
      <path fill="none" stroke="black" d="M91.0072,-309.715C124.076,-312.864 171.83,-317.412 208.472,-320.902"/>
      <polygon fill="black" stroke="black" points="208.204,-324.392 218.491,-321.856 208.868,-317.424 208.204,-324.392"/>
    </g>
    <!-- User -->
    <g id="node13" class="node">
      <title>User</title>
      <polygon fill="none" stroke="black" points="78,-180 24,-180 24,-144 78,-144 78,-180"/>
      <text text-anchor="middle" x="51" y="-158.3" font-family="Times,serif" font-size="14.00">User</text>
    </g>
    <!-- Study&#45;&gt;User -->
    <g id="edge12" class="edge">
      <title>Study&#45;&gt;User</title>
      <path fill="none" stroke="black" d="M51,-215.954C51,-207.407 51,-198.861 51,-190.314"/>
      <polygon fill="black" stroke="black" points="54.5001,-190.281 51,-180.281 47.5001,-190.281 54.5001,-190.281"/>
    </g>
    <!-- Study&#45;&gt;Investigation -->
    <g id="edge50" class="edge">
      <title>Study&#45;&gt;Investigation</title>
      <path fill="none" stroke="black" d="M87.5173,-249.56C121.453,-264.427 172.958,-286.991 211.223,-303.755"/>
      <polygon fill="black" stroke="black" points="88.7361,-246.273 78.172,-245.466 85.9271,-252.685 88.7361,-246.273"/>
      <polygon fill="black" stroke="black" points="210.083,-307.076 220.647,-307.883 212.892,-300.665 210.083,-307.076"/>
    </g>
    <!-- Grouping -->
    <g id="node15" class="node">
      <title>Grouping</title>
      <polygon fill="none" stroke="black" points="86.5,-108 15.5,-108 15.5,-72 86.5,-72 86.5,-108"/>
      <text text-anchor="middle" x="51" y="-86.3" font-family="Times,serif" font-size="14.00">Grouping</text>
    </g>
    <!-- User&#45;&gt;Grouping -->
    <g id="edge14" class="edge">
      <title>User&#45;&gt;Grouping</title>
      <path fill="none" stroke="black" d="M51,-133.938C51,-128.73 51,-123.522 51,-118.314"/>
      <polygon fill="black" stroke="black" points="47.5001,-133.954 51,-143.954 54.5001,-133.954 47.5001,-133.954"/>
      <polygon fill="black" stroke="black" points="54.5001,-118.281 51,-108.281 47.5001,-118.281 54.5001,-118.281"/>
    </g>
    <!-- User&#45;&gt;Investigation -->
    <g id="edge52" class="edge">
      <title>User&#45;&gt;Investigation</title>
      <path fill="none" stroke="black" d="M87.2744,-179.227C118.688,-195.513 164.965,-221.893 200,-252 216.258,-265.971 231.746,-284.453 243.176,-299.451"/>
      <polygon fill="black" stroke="black" points="88.5288,-175.937 78.0314,-174.503 85.3435,-182.171 88.5288,-175.937"/>
      <polygon fill="black" stroke="black" points="240.63,-301.892 249.412,-307.819 246.243,-297.709 240.63,-301.892"/>
      <text text-anchor="middle" x="160" y="-255" font-family="Times,serif" font-size="10.00">InvestigationUser</text>
    </g>
    <!-- Instrument -->
    <g id="node25" class="node">
      <title>Instrument</title>
      <polygon fill="none" stroke="black" points="301.5,-180 224.5,-180 224.5,-144 301.5,-144 301.5,-180"/>
      <text text-anchor="middle" x="263" y="-158.3" font-family="Times,serif" font-size="14.00">Instrument</text>
    </g>
    <!-- User&#45;&gt;Instrument -->
    <g id="edge54" class="edge">
      <title>User&#45;&gt;Instrument</title>
      <path fill="none" stroke="black" d="M88.3084,-162C123.119,-162 175.879,-162 214.115,-162"/>
      <polygon fill="black" stroke="black" points="88.1721,-158.5 78.172,-162 88.172,-165.5 88.1721,-158.5"/>
      <polygon fill="black" stroke="black" points="214.487,-165.5 224.487,-162 214.487,-158.5 214.487,-165.5"/>
      <text text-anchor="middle" x="160" y="-165" font-family="Times,serif" font-size="10.00">InstrumentScientist</text>
    </g>
    <!-- Rule -->
    <g id="node17" class="node">
      <title>Rule</title>
      <polygon fill="none" stroke="black" points="78,-36 24,-36 24,-0 78,-0 78,-36"/>
      <text text-anchor="middle" x="51" y="-14.3" font-family="Times,serif" font-size="14.00">Rule</text>
    </g>
    <!-- Grouping&#45;&gt;Rule -->
    <g id="edge16" class="edge">
      <title>Grouping&#45;&gt;Rule</title>
      <path fill="none" stroke="black" d="M51,-61.9209C51,-53.3744 51,-44.8278 51,-36.2812"/>
      <polygon fill="black" stroke="black" points="47.5001,-61.9538 51,-71.9539 54.5001,-61.9539 47.5001,-61.9538"/>
    </g>
    <!-- Datafile&#45;&gt;Datafile -->
    <g id="edge56" class="edge">
      <title>Datafile&#45;&gt;Datafile</title>
      <path fill="none" stroke="black" d="M251.917,-811.28C253.516,-815.858 257.211,-819 263,-819 268.789,-819 272.484,-815.858 274.083,-811.28"/>
      <polygon fill="black" stroke="black" points="255.406,-810.97 251.422,-801.153 248.414,-811.312 255.406,-810.97"/>
      <polygon fill="black" stroke="black" points="277.586,-811.312 274.578,-801.153 270.594,-810.97 277.586,-811.312"/>
      <text text-anchor="middle" x="263" y="-822" font-family="Times,serif" font-size="10.00">RelatedDatafile</text>
    </g>
    <!-- Datafile&#45;&gt;Dataset -->
    <g id="edge19" class="edge">
      <title>Datafile&#45;&gt;Dataset</title>
      <path fill="none" stroke="black" d="M263,-764.966C263,-752.362 263,-739.759 263,-727.155"/>
      <polygon fill="black" stroke="black" points="266.5,-727.047 263,-717.047 259.5,-727.047 266.5,-727.047"/>
    </g>
    <!-- DatafileParameter -->
    <g id="node27" class="node">
      <title>DatafileParameter</title>
      <polygon fill="none" stroke="black" points="485.5,-914 366.5,-914 366.5,-878 485.5,-878 485.5,-914"/>
      <text text-anchor="middle" x="426" y="-892.3" font-family="Times,serif" font-size="14.00">DatafileParameter</text>
    </g>
    <!-- Datafile&#45;&gt;DatafileParameter -->
    <g id="edge58" class="edge">
      <title>Datafile&#45;&gt;DatafileParameter</title>
      <path fill="none" stroke="black" d="M291.438,-807.807C306.933,-821.282 326.959,-837.831 346,-851 360.021,-860.697 376.272,-870.221 390.376,-877.992"/>
      <polygon fill="black" stroke="black" points="293.599,-805.047 283.777,-801.075 288.978,-810.305 293.599,-805.047"/>
    </g>
    <!-- DatafileFormat -->
    <g id="node29" class="node">
      <title>DatafileFormat</title>
      <polygon fill="none" stroke="black" points="477,-842 375,-842 375,-806 477,-806 477,-842"/>
      <text text-anchor="middle" x="426" y="-820.3" font-family="Times,serif" font-size="14.00">DatafileFormat</text>
    </g>
    <!-- Datafile&#45;&gt;DatafileFormat -->
    <g id="edge62" class="edge">
      <title>Datafile&#45;&gt;DatafileFormat</title>
      <path fill="none" stroke="black" d="M293.53,-790.52C313.477,-795.6 340.516,-802.485 364.887,-808.692"/>
      <polygon fill="black" stroke="black" points="364.228,-812.136 374.783,-811.212 365.956,-805.352 364.228,-812.136"/>
    </g>
    <!-- Sample -->
    <g id="node22" class="node">
      <title>Sample</title>
      <polygon fill="none" stroke="black" points="292.5,-507 233.5,-507 233.5,-471 292.5,-471 292.5,-507"/>
      <text text-anchor="middle" x="263" y="-485.3" font-family="Times,serif" font-size="14.00">Sample</text>
    </g>
    <!-- Dataset&#45;&gt;Sample -->
    <g id="edge20" class="edge">
      <title>Dataset&#45;&gt;Sample</title>
      <path fill="none" stroke="black" d="M263,-680.629C263,-626.159 263,-571.688 263,-517.218"/>
      <polygon fill="black" stroke="black" points="266.5,-517.047 263,-507.047 259.5,-517.047 266.5,-517.047"/>
    </g>
    <!-- Dataset&#45;&gt;Investigation -->
    <g id="edge84" class="edge">
      <title>Dataset&#45;&gt;Investigation</title>
      <path fill="none" stroke="black" d="M244.69,-680.953C208.627,-643.13 134.059,-552.312 160,-471 175.119,-423.609 211.998,-378.443 237.263,-351.468"/>
      <polygon fill="black" stroke="black" points="239.995,-353.675 244.373,-344.027 234.934,-348.839 239.995,-353.675"/>
    </g>
    <!-- DatasetParameter -->
    <g id="node30" class="node">
      <title>DatasetParameter</title>
      <polygon fill="none" stroke="black" points="484,-770 368,-770 368,-734 484,-734 484,-770"/>
      <text text-anchor="middle" x="426" y="-748.3" font-family="Times,serif" font-size="14.00">DatasetParameter</text>
    </g>
    <!-- Dataset&#45;&gt;DatasetParameter -->
    <g id="edge66" class="edge">
      <title>Dataset&#45;&gt;DatasetParameter</title>
      <path fill="none" stroke="black" d="M301.618,-711.384C322.045,-718.108 347.675,-726.545 370.275,-733.985"/>
      <polygon fill="black" stroke="black" points="302.637,-708.034 292.044,-708.232 300.448,-714.683 302.637,-708.034"/>
    </g>
    <!-- DatasetType -->
    <g id="node31" class="node">
      <title>DatasetType</title>
      <polygon fill="none" stroke="black" points="470,-698 382,-698 382,-662 470,-662 470,-698"/>
      <text text-anchor="middle" x="426" y="-676.3" font-family="Times,serif" font-size="14.00">DatasetType</text>
    </g>
    <!-- Dataset&#45;&gt;DatasetType -->
    <g id="edge70" class="edge">
      <title>Dataset&#45;&gt;DatasetType</title>
      <path fill="none" stroke="black" d="M292.044,-695.69C314.013,-693.098 345.214,-689.416 371.87,-686.27"/>
      <polygon fill="black" stroke="black" points="372.314,-689.742 381.835,-685.094 371.494,-682.79 372.314,-689.742"/>
    </g>
    <!-- Sample&#45;&gt;Investigation -->
    <g id="edge21" class="edge">
      <title>Sample&#45;&gt;Investigation</title>
      <path fill="none" stroke="black" d="M263,-470.893C263,-432.11 263,-393.327 263,-354.544"/>
      <polygon fill="black" stroke="black" points="266.5,-354.146 263,-344.146 259.5,-354.147 266.5,-354.146"/>
    </g>
    <!-- SampleParameter -->
    <g id="node33" class="node">
      <title>SampleParameter</title>
      <polygon fill="none" stroke="black" points="484,-554 368,-554 368,-518 484,-518 484,-554"/>
      <text text-anchor="middle" x="426" y="-532.3" font-family="Times,serif" font-size="14.00">SampleParameter</text>
    </g>
    <!-- Sample&#45;&gt;SampleParameter -->
    <g id="edge77" class="edge">
      <title>Sample&#45;&gt;SampleParameter</title>
      <path fill="none" stroke="black" d="M302.538,-500.25C322.06,-505.949 346.152,-512.982 367.788,-519.298"/>
      <polygon fill="black" stroke="black" points="303.364,-496.845 292.784,-497.403 301.402,-503.565 303.364,-496.845"/>
    </g>
    <!-- SampleType -->
    <g id="node34" class="node">
      <title>SampleType</title>
      <polygon fill="none" stroke="black" points="470.5,-482 381.5,-482 381.5,-446 470.5,-446 470.5,-482"/>
      <text text-anchor="middle" x="426" y="-460.3" font-family="Times,serif" font-size="14.00">SampleType</text>
    </g>
    <!-- Sample&#45;&gt;SampleType -->
    <g id="edge81" class="edge">
      <title>Sample&#45;&gt;SampleType</title>
      <path fill="none" stroke="black" d="M292.784,-484.531C314.502,-481.158 344.931,-476.433 371.122,-472.366"/>
      <polygon fill="black" stroke="black" points="371.954,-475.779 381.298,-470.786 370.88,-468.862 371.954,-475.779"/>
    </g>
    <!-- Investigation&#45;&gt;Instrument -->
    <g id="edge23" class="edge">
      <title>Investigation&#45;&gt;Instrument</title>
      <path fill="none" stroke="black" d="M263,-297.722C263,-262.054 263,-226.387 263,-190.719"/>
      <polygon fill="black" stroke="black" points="259.5,-297.782 263,-307.782 266.5,-297.782 259.5,-297.782"/>
      <polygon fill="black" stroke="black" points="266.5,-190.258 263,-180.258 259.5,-190.258 266.5,-190.258"/>
    </g>
    <!-- InvestigationParameter -->
    <g id="node35" class="node">
      <title>InvestigationParameter</title>
      <polygon fill="none" stroke="black" points="499.5,-390 352.5,-390 352.5,-354 499.5,-354 499.5,-390"/>
      <text text-anchor="middle" x="426" y="-368.3" font-family="Times,serif" font-size="14.00">InvestigationParameter</text>
    </g>
    <!-- Investigation&#45;&gt;InvestigationParameter -->
    <g id="edge91" class="edge">
      <title>Investigation&#45;&gt;InvestigationParameter</title>
      <path fill="none" stroke="black" d="M317.204,-341.201C331.458,-345.274 347.007,-349.716 361.747,-353.928"/>
      <polygon fill="black" stroke="black" points="318.146,-337.83 307.569,-338.448 316.223,-344.561 318.146,-337.83"/>
    </g>
    <!-- InvestigationType -->
    <g id="node36" class="node">
      <title>InvestigationType</title>
      <polygon fill="none" stroke="black" points="485.5,-298 366.5,-298 366.5,-262 485.5,-262 485.5,-298"/>
      <text text-anchor="middle" x="426" y="-276.3" font-family="Times,serif" font-size="14.00">InvestigationType</text>
    </g>
    <!-- Investigation&#45;&gt;InvestigationType -->
    <g id="edge88" class="edge">
      <title>Investigation&#45;&gt;InvestigationType</title>
      <path fill="none" stroke="black" d="M307.569,-313.552C322.671,-309.237 339.988,-304.289 356.601,-299.543"/>
      <polygon fill="black" stroke="black" points="357.625,-302.89 366.279,-296.777 355.702,-296.159 357.625,-302.89"/>
    </g>
    <!-- FacilityCycle -->
    <g id="node37" class="node">
      <title>FacilityCycle</title>
      <polygon fill="none" stroke="black" points="473.5,-226 378.5,-226 378.5,-190 473.5,-190 473.5,-226"/>
      <text text-anchor="middle" x="426" y="-204.3" font-family="Times,serif" font-size="14.00">FacilityCycle</text>
    </g>
    <!-- Investigation&#45;&gt;Facility -->
    <g id="edge86" class="edge">
      <title>Investigation&#45;&gt;Facility</title>
      <path fill="none" stroke="black" d="M307.762,-326C377.297,-326 511.948,-326 578.625,-326"/>
      <polygon fill="black" stroke="black" points="578.722,-329.5 588.722,-326 578.722,-322.5 578.722,-329.5"/>
    </g>
    <!-- Instrument&#45;&gt;Facility -->
    <g id="edge99" class="edge">
      <title>Instrument&#45;&gt;Facility</title>
      <path fill="none" stroke="black" d="M301.867,-155.967C351.861,-149.922 441.127,-145.919 506,-181 554.385,-207.165 588.508,-264.146 605.558,-298.37"/>
      <polygon fill="black" stroke="black" points="602.606,-300.305 610.106,-307.789 608.91,-297.262 602.606,-300.305"/>
    </g>
    <!-- ParameterType -->
    <g id="node41" class="node">
      <title>ParameterType</title>
      <polygon fill="none" stroke="black" points="671,-770 567,-770 567,-734 671,-734 671,-770"/>
      <text text-anchor="middle" x="619" y="-748.3" font-family="Times,serif" font-size="14.00">ParameterType</text>
    </g>
    <!-- DatafileParameter&#45;&gt;ParameterType -->
    <g id="edge60" class="edge">
      <title>DatafileParameter&#45;&gt;ParameterType</title>
      <path fill="none" stroke="black" d="M466.646,-877.843C480.001,-870.621 494.436,-861.51 506,-851 527.717,-831.262 522.567,-817.046 544,-797 552.578,-788.977 562.812,-781.66 572.892,-775.365"/>
      <polygon fill="black" stroke="black" points="574.888,-778.249 581.665,-770.105 571.288,-772.246 574.888,-778.249"/>
    </g>
    <!-- DatafileFormat&#45;&gt;Facility -->
    <g id="edge64" class="edge">
      <title>DatafileFormat&#45;&gt;Facility</title>
      <path fill="none" stroke="black" d="M473.173,-805.837C485.393,-799.055 497.524,-790.203 506,-779 607.33,-645.068 617.993,-430.993 618.384,-354.398"/>
      <polygon fill="black" stroke="black" points="621.883,-354.118 618.376,-344.121 614.883,-354.123 621.883,-354.118"/>
    </g>
    <!-- DatasetParameter&#45;&gt;ParameterType -->
    <g id="edge68" class="edge">
      <title>DatasetParameter&#45;&gt;ParameterType</title>
      <path fill="none" stroke="black" d="M484.048,-752C506.933,-752 533.355,-752 556.653,-752"/>
      <polygon fill="black" stroke="black" points="556.77,-755.5 566.77,-752 556.77,-748.5 556.77,-755.5"/>
    </g>
    <!-- DatasetType&#45;&gt;Facility -->
    <g id="edge71" class="edge">
      <title>DatasetType&#45;&gt;Facility</title>
      <path fill="none" stroke="black" d="M470.38,-662.375C483.246,-655.425 496.437,-646.345 506,-635 578.358,-549.158 605.65,-412.741 614.407,-354.197"/>
      <polygon fill="black" stroke="black" points="617.885,-354.595 615.833,-344.201 610.956,-353.606 617.885,-354.595"/>
    </g>
    <!-- DataCollectionParameter&#45;&gt;ParameterType -->
    <g id="edge75" class="edge">
      <title>DataCollectionParameter&#45;&gt;ParameterType</title>
      <path fill="none" stroke="black" d="M462.172,-626.003C476.207,-633.702 492.262,-643.175 506,-653 537.723,-675.687 570.798,-705.854 592.705,-726.901"/>
      <polygon fill="black" stroke="black" points="590.35,-729.493 599.967,-733.938 595.221,-724.466 590.35,-729.493"/>
    </g>
    <!-- SampleParameter&#45;&gt;ParameterType -->
    <g id="edge79" class="edge">
      <title>SampleParameter&#45;&gt;ParameterType</title>
      <path fill="none" stroke="black" d="M467.251,-554.16C480.509,-561.329 494.728,-570.407 506,-581 551.461,-623.723 587.299,-688.404 605.294,-724.741"/>
      <polygon fill="black" stroke="black" points="602.163,-726.306 609.685,-733.768 608.458,-723.244 602.163,-726.306"/>
    </g>
    <!-- SampleType&#45;&gt;Facility -->
    <g id="edge82" class="edge">
      <title>SampleType&#45;&gt;Facility</title>
      <path fill="none" stroke="black" d="M470.701,-455.342C488.818,-450.41 509.427,-442.96 526,-432 557.539,-411.142 584.646,-376.623 601.106,-352.669"/>
      <polygon fill="black" stroke="black" points="604.219,-354.311 606.88,-344.056 598.404,-350.413 604.219,-354.311"/>
    </g>
    <!-- InvestigationParameter&#45;&gt;ParameterType -->
    <g id="edge93" class="edge">
      <title>InvestigationParameter&#45;&gt;ParameterType</title>
      <path fill="none" stroke="black" d="M455.935,-390.004C472.571,-401.634 492.736,-418.101 506,-437 571.448,-530.25 602.376,-665.686 613.244,-723.798"/>
      <polygon fill="black" stroke="black" points="609.815,-724.506 615.044,-733.721 616.703,-723.257 609.815,-724.506"/>
    </g>
    <!-- InvestigationType&#45;&gt;Facility -->
    <g id="edge89" class="edge">
      <title>InvestigationType&#45;&gt;Facility</title>
      <path fill="none" stroke="black" d="M485.604,-294.114C515.942,-301.421 552.15,-310.141 579.026,-316.614"/>
      <polygon fill="black" stroke="black" points="578.297,-320.038 588.839,-318.977 579.936,-313.233 578.297,-320.038"/>
    </g>
    <!-- FacilityCycle&#45;&gt;Facility -->
    <g id="edge97" class="edge">
      <title>FacilityCycle&#45;&gt;Facility</title>
      <path fill="none" stroke="black" d="M459.927,-226.175C474.203,-234.205 491.042,-243.877 506,-253 532.064,-268.898 560.913,-287.732 582.804,-302.287"/>
      <polygon fill="black" stroke="black" points="580.87,-305.203 591.131,-307.84 584.753,-299.38 580.87,-305.203"/>
    </g>
    <!-- PermissibleStringValue -->
    <g id="node39" class="node">
      <title>PermissibleStringValue</title>
      <polygon fill="none" stroke="black" points="693.5,-842 544.5,-842 544.5,-806 693.5,-806 693.5,-842"/>
      <text text-anchor="middle" x="619" y="-820.3" font-family="Times,serif" font-size="14.00">PermissibleStringValue</text>
    </g>
    <!-- PermissibleStringValue&#45;&gt;ParameterType -->
    <g id="edge37" class="edge">
      <title>PermissibleStringValue&#45;&gt;ParameterType</title>
      <path fill="none" stroke="black" d="M619,-805.954C619,-797.407 619,-788.861 619,-780.314"/>
      <polygon fill="black" stroke="black" points="622.5,-780.281 619,-770.281 615.5,-780.281 622.5,-780.281"/>
    </g>
    <!-- ParameterType&#45;&gt;Facility -->
    <g id="edge38" class="edge">
      <title>ParameterType&#45;&gt;Facility</title>
      <path fill="none" stroke="black" d="M619,-733.686C619,-607.314 619,-480.943 619,-354.572"/>
      <polygon fill="black" stroke="black" points="622.5,-354.305 619,-344.305 615.5,-354.305 622.5,-354.305"/>
    </g>
  </g>
</svg>
